<svg width="513" height="186" viewBox="0 0 513 186" fill="none" xmlns="http://www.w3.org/2000/svg">
<path d="M127.996 41.6319V41.611C127.948 39.8743 127.525 38.173 126.673 36.6906C126.573 36.5216 126.363 36.4524 126.181 36.5345C123.624 37.6628 89.5684 53.0934 88.995 53.3558C79.3608 57.7885 70.6501 61.888 66.8905 63.879C54.2484 70.5875 47.8598 81.4052 47.5676 95.4501C47.5659 95.603 47.5804 96.4947 47.5948 97.3381C47.6029 97.7517 48.1441 97.8998 48.3545 97.5441C49.9974 94.7853 54.5326 88.8638 63.192 88.8638C72.9996 88.8638 80.2104 96.8906 80.2104 105.92C80.2104 115.228 72.7925 122.976 63.192 122.976C49.7741 122.976 42.1827 110.044 42.1827 95.3133C42.1827 80.3542 49.0916 68.508 61.3291 60.8611C62.3071 60.2478 63.3205 59.6652 64.3676 59.1067C67.1908 57.6114 72.8631 54.8816 81.2639 50.9801C81.2687 50.9801 81.2719 50.9801 81.2768 50.9753C81.3153 50.9576 81.3539 50.9415 81.3844 50.927C81.3924 50.9222 81.3972 50.919 81.4052 50.9141C81.7329 50.75 81.659 50.2446 81.28 50.1834C81.068 50.1528 80.8528 50.1222 80.6376 50.0933C78.3796 49.7778 75.9787 49.5492 73.6292 49.5492C46.0901 49.5492 24 71.9267 24 99.527C24 126.958 47.1982 149.5 73.8138 149.5C105.536 149.5 123.628 122.973 123.628 99.5769C123.628 89.0409 120.811 80.0242 115.256 71.9621C116.812 71.2056 118.307 70.4539 119.748 69.6121C122.497 68.009 124.554 65.6897 125.609 62.7008C126.579 59.9581 126.557 56.8775 125.812 54.0817C125.751 53.8531 125.502 53.7357 125.29 53.8226C119.423 56.2546 106.449 61.8493 106.449 61.8493L104.422 60.1851C104.422 60.1851 117.291 54.563 121.888 52.4931C125.759 50.7548 128.112 46.0855 127.996 41.6319Z" fill="url(#paint0_linear_10_62)"/>
<path d="M191.4 78.4C197.733 78.4 202.7 80.3 206.3 84.1C209.9 87.9 211.7 93.4 211.7 100.6V130H203.5V101.1C203.5 96.1667 202.333 92.4 200 89.8C197.667 87.2 194.333 85.9 190 85.9C185.4 85.9 181.733 87.5 179 90.7C176.333 93.8333 175 98.1 175 103.5V130H166.8V60H175V86.1C178.8 80.9667 184.267 78.4 191.4 78.4ZM270.261 122.5H272.861V130H268.361C265.094 130 262.761 129.333 261.361 128C259.961 126.667 259.228 124.7 259.161 122.1C255.228 127.767 249.528 130.6 242.061 130.6C236.394 130.6 231.828 129.267 228.361 126.6C224.961 123.933 223.261 120.3 223.261 115.7C223.261 110.567 224.994 106.633 228.461 103.9C231.994 101.167 237.094 99.8 243.761 99.8H258.761V96.3C258.761 92.9667 257.628 90.3667 255.361 88.5C253.161 86.6333 250.061 85.7 246.061 85.7C242.528 85.7 239.594 86.5 237.261 88.1C234.994 89.6333 233.594 91.7 233.061 94.3H224.861C225.461 89.3 227.661 85.4 231.461 82.6C235.328 79.8 240.328 78.4 246.461 78.4C252.994 78.4 258.028 80 261.561 83.2C265.161 86.3333 266.961 90.8667 266.961 96.8V119.1C266.961 120.433 267.194 121.333 267.661 121.8C268.194 122.267 269.061 122.5 270.261 122.5ZM258.761 109.2V106.7H242.961C235.361 106.7 231.561 109.533 231.561 115.2C231.561 117.733 232.561 119.767 234.561 121.3C236.561 122.833 239.261 123.6 242.661 123.6C247.661 123.6 251.594 122.3 254.461 119.7C257.328 117.033 258.761 113.533 258.761 109.2ZM315.764 79H321.264V87H314.664C309.197 87 305.264 88.7 302.864 92.1C300.464 95.4333 299.264 99.4667 299.264 104.2V122.5H314.164V130H279.664V122.5H291.064V86.5H279.664V79H298.864L299.164 87.6C302.431 81.8667 307.964 79 315.764 79ZM357.762 78.4C364.962 78.4 370.828 80.7333 375.362 85.4C379.962 90 382.262 96.3667 382.262 104.5C382.262 112.233 379.962 118.533 375.362 123.4C370.762 128.2 364.895 130.6 357.762 130.6C349.628 130.6 343.795 127.8 340.262 122.2V150H332.062V79H339.162L340.262 87.2C344.528 81.3333 350.362 78.4 357.762 78.4ZM356.962 123.3C362.028 123.3 366.095 121.567 369.162 118.1C372.295 114.567 373.862 110.033 373.862 104.5C373.862 98.9667 372.295 94.4667 369.162 91C366.095 87.4667 362.028 85.7 356.962 85.7C351.962 85.7 347.895 87.4333 344.762 90.9C341.695 94.3667 340.162 98.8333 340.162 104.3C340.162 109.9 341.695 114.467 344.762 118C347.895 121.533 351.962 123.3 356.962 123.3ZM414.066 68.4C412.933 69.5333 411.466 70.1 409.666 70.1C407.866 70.1 406.366 69.5 405.166 68.3C403.966 67.1 403.366 65.6 403.366 63.8C403.366 62.0667 403.966 60.6 405.166 59.4C406.433 58.2 407.933 57.6 409.666 57.6C411.4 57.6 412.866 58.2 414.066 59.4C415.266 60.6 415.866 62.0667 415.866 63.8C415.866 65.6667 415.266 67.2 414.066 68.4ZM413.666 122.5H429.166V130H390.066V122.5H405.466V86.5H390.066V79H413.666V122.5ZM483.184 106.3H443.584V106.8C443.717 111.733 445.217 115.733 448.084 118.8C451.017 121.8 454.884 123.3 459.684 123.3C463.35 123.3 466.45 122.4 468.984 120.6C471.584 118.733 473.317 116.167 474.184 112.9H482.484C481.484 118.1 478.984 122.367 474.984 125.7C470.984 128.967 466.084 130.6 460.284 130.6C452.684 130.6 446.55 128.2 441.884 123.4C437.284 118.6 434.984 112.3 434.984 104.5C434.984 96.7667 437.217 90.5 441.684 85.7C446.15 80.8333 451.984 78.4 459.184 78.4C466.45 78.4 472.25 80.5667 476.584 84.9C480.917 89.1667 483.184 95.0667 483.384 102.6C483.384 103.467 483.317 104.7 483.184 106.3ZM459.284 85.6C455.417 85.6 452.017 86.8667 449.084 89.4C446.15 91.9333 444.484 95.2333 444.084 99.3H474.584C474.184 94.9667 472.617 91.6 469.884 89.2C467.15 86.8 463.617 85.6 459.284 85.6Z" fill="white"/>
<defs>
<linearGradient id="paint0_linear_10_62" x1="54.6418" y1="42.5938" x2="116.647" y2="139.814" gradientUnits="userSpaceOnUse">
<stop stop-color="#F2914D"/>
<stop offset="1" stop-color="#E9532D"/>
</linearGradient>
</defs>
</svg>
